<svg xmlns="http://www.w3.org/2000/svg" version="1.1" xmlns:xlink="http://www.w3.org/1999/xlink" xmlns:svgjs="http://svgjs.dev/svgjs" viewBox="0 0 800 800"><g fill="none" stroke-width="3" stroke="hsl(335, 77%, 50%)" stroke-linecap="round"><line x1="201.5" y1="400" x2="598.5" y2="400" transform="rotate(0, 400, 400)" opacity="0.58"></line><line x1="368.5" y1="400" x2="431.5" y2="400" transform="rotate(4, 400, 400)" opacity="0.35"></line><line x1="106.5" y1="400" x2="693.5" y2="400" transform="rotate(8, 400, 400)" opacity="0.63"></line><line x1="120" y1="400" x2="680" y2="400" transform="rotate(12, 400, 400)" opacity="0.12"></line><line x1="701" y1="400" x2="99" y2="400" transform="rotate(16, 400, 400)" opacity="0.74"></line><line x1="356.5" y1="400" x2="443.5" y2="400" transform="rotate(20, 400, 400)" opacity="0.23"></line><line x1="388" y1="400" x2="412" y2="400" transform="rotate(24, 400, 400)" opacity="0.75"></line><line x1="553" y1="400" x2="247" y2="400" transform="rotate(28, 400, 400)" opacity="0.47"></line><line x1="279.5" y1="400" x2="520.5" y2="400" transform="rotate(32, 400, 400)" opacity="0.49"></line><line x1="579" y1="400" x2="221" y2="400" transform="rotate(36, 400, 400)" opacity="0.96"></line><line x1="258.5" y1="400" x2="541.5" y2="400" transform="rotate(40, 400, 400)" opacity="0.43"></line><line x1="237" y1="400" x2="563" y2="400" transform="rotate(44, 400, 400)" opacity="0.92"></line><line x1="122" y1="400" x2="678" y2="400" transform="rotate(48, 400, 400)" opacity="0.31"></line><line x1="711" y1="400" x2="89" y2="400" transform="rotate(52, 400, 400)" opacity="0.84"></line><line x1="552.5" y1="400" x2="247.5" y2="400" transform="rotate(56, 400, 400)" opacity="0.92"></line><line x1="188" y1="400" x2="612" y2="400" transform="rotate(60, 400, 400)" opacity="0.82"></line><line x1="100" y1="400" x2="700" y2="400" transform="rotate(64, 400, 400)" opacity="0.85"></line><line x1="336" y1="400" x2="464" y2="400" transform="rotate(68, 400, 400)" opacity="0.90"></line><line x1="138.5" y1="400" x2="661.5" y2="400" transform="rotate(72, 400, 400)" opacity="0.10"></line><line x1="246.5" y1="400" x2="553.5" y2="400" transform="rotate(76, 400, 400)" opacity="0.55"></line><line x1="59.5" y1="400" x2="740.5" y2="400" transform="rotate(80, 400, 400)" opacity="0.84"></line><line x1="266" y1="400" x2="534" y2="400" transform="rotate(84, 400, 400)" opacity="0.66"></line><line x1="218.5" y1="400" x2="581.5" y2="400" transform="rotate(88, 400, 400)" opacity="0.09"></line><line x1="232.5" y1="400" x2="567.5" y2="400" transform="rotate(92, 400, 400)" opacity="0.99"></line><line x1="486.5" y1="400" x2="313.5" y2="400" transform="rotate(96, 400, 400)" opacity="0.14"></line><line x1="159.5" y1="400" x2="640.5" y2="400" transform="rotate(100, 400, 400)" opacity="0.89"></line><line x1="557" y1="400" x2="243" y2="400" transform="rotate(104, 400, 400)" opacity="0.71"></line><line x1="76" y1="400" x2="724" y2="400" transform="rotate(108, 400, 400)" opacity="0.95"></line><line x1="428" y1="400" x2="372" y2="400" transform="rotate(112, 400, 400)" opacity="0.85"></line><line x1="628.5" y1="400" x2="171.5" y2="400" transform="rotate(116, 400, 400)" opacity="0.91"></line><line x1="67.5" y1="400" x2="732.5" y2="400" transform="rotate(120, 400, 400)" opacity="0.52"></line><line x1="708" y1="400" x2="92" y2="400" transform="rotate(124, 400, 400)" opacity="0.42"></line><line x1="187" y1="400" x2="613" y2="400" transform="rotate(128, 400, 400)" opacity="0.93"></line><line x1="53.5" y1="400" x2="746.5" y2="400" transform="rotate(132, 400, 400)" opacity="0.28"></line><line x1="591.5" y1="400" x2="208.5" y2="400" transform="rotate(136, 400, 400)" opacity="0.82"></line><line x1="592" y1="400" x2="208" y2="400" transform="rotate(140, 400, 400)" opacity="0.48"></line><line x1="664.5" y1="400" x2="135.5" y2="400" transform="rotate(144, 400, 400)" opacity="0.96"></line><line x1="93" y1="400" x2="707" y2="400" transform="rotate(148, 400, 400)" opacity="0.36"></line><line x1="681.5" y1="400" x2="118.5" y2="400" transform="rotate(152, 400, 400)" opacity="0.60"></line><line x1="330" y1="400" x2="470" y2="400" transform="rotate(156, 400, 400)" opacity="0.83"></line><line x1="430" y1="400" x2="370" y2="400" transform="rotate(160, 400, 400)" opacity="0.63"></line><line x1="441.5" y1="400" x2="358.5" y2="400" transform="rotate(164, 400, 400)" opacity="0.14"></line><line x1="150" y1="400" x2="650" y2="400" transform="rotate(168, 400, 400)" opacity="0.21"></line><line x1="66" y1="400" x2="734" y2="400" transform="rotate(172, 400, 400)" opacity="0.38"></line><line x1="531.5" y1="400" x2="268.5" y2="400" transform="rotate(176, 400, 400)" opacity="0.84"></line><line x1="653" y1="400" x2="147" y2="400" transform="rotate(180, 400, 400)" opacity="0.49"></line><line x1="289.5" y1="400" x2="510.5" y2="400" transform="rotate(184, 400, 400)" opacity="0.55"></line><line x1="594" y1="400" x2="206" y2="400" transform="rotate(188, 400, 400)" opacity="0.20"></line><line x1="28" y1="400" x2="772" y2="400" transform="rotate(192, 400, 400)" opacity="0.27"></line><line x1="554.5" y1="400" x2="245.5" y2="400" transform="rotate(196, 400, 400)" opacity="0.92"></line><line x1="77" y1="400" x2="723" y2="400" transform="rotate(200, 400, 400)" opacity="0.78"></line><line x1="392.5" y1="400" x2="407.5" y2="400" transform="rotate(204, 400, 400)" opacity="0.22"></line><line x1="549.5" y1="400" x2="250.5" y2="400" transform="rotate(208, 400, 400)" opacity="0.18"></line><line x1="118" y1="400" x2="682" y2="400" transform="rotate(212, 400, 400)" opacity="0.83"></line><line x1="401.5" y1="400" x2="398.5" y2="400" transform="rotate(216, 400, 400)" opacity="0.63"></line><line x1="424" y1="400" x2="376" y2="400" transform="rotate(220, 400, 400)" opacity="0.54"></line><line x1="78" y1="400" x2="722" y2="400" transform="rotate(224, 400, 400)" opacity="0.83"></line><line x1="435.5" y1="400" x2="364.5" y2="400" transform="rotate(228, 400, 400)" opacity="0.89"></line><line x1="713" y1="400" x2="87" y2="400" transform="rotate(232, 400, 400)" opacity="0.76"></line><line x1="704.5" y1="400" x2="95.5" y2="400" transform="rotate(236, 400, 400)" opacity="0.29"></line><line x1="509" y1="400" x2="291" y2="400" transform="rotate(240, 400, 400)" opacity="0.14"></line><line x1="76.5" y1="400" x2="723.5" y2="400" transform="rotate(244, 400, 400)" opacity="0.98"></line><line x1="388" y1="400" x2="412" y2="400" transform="rotate(248, 400, 400)" opacity="0.64"></line><line x1="529.5" y1="400" x2="270.5" y2="400" transform="rotate(252, 400, 400)" opacity="0.25"></line><line x1="389" y1="400" x2="411" y2="400" transform="rotate(256, 400, 400)" opacity="0.07"></line><line x1="234.5" y1="400" x2="565.5" y2="400" transform="rotate(260, 400, 400)" opacity="0.48"></line><line x1="110.5" y1="400" x2="689.5" y2="400" transform="rotate(264, 400, 400)" opacity="0.28"></line><line x1="710" y1="400" x2="90" y2="400" transform="rotate(268, 400, 400)" opacity="0.82"></line><line x1="157.5" y1="400" x2="642.5" y2="400" transform="rotate(272, 400, 400)" opacity="0.46"></line><line x1="610.5" y1="400" x2="189.5" y2="400" transform="rotate(276, 400, 400)" opacity="0.65"></line><line x1="544.5" y1="400" x2="255.5" y2="400" transform="rotate(280, 400, 400)" opacity="0.65"></line><line x1="52.5" y1="400" x2="747.5" y2="400" transform="rotate(284, 400, 400)" opacity="0.26"></line><line x1="361.5" y1="400" x2="438.5" y2="400" transform="rotate(288, 400, 400)" opacity="0.40"></line><line x1="84.5" y1="400" x2="715.5" y2="400" transform="rotate(292, 400, 400)" opacity="0.98"></line><line x1="58.5" y1="400" x2="741.5" y2="400" transform="rotate(296, 400, 400)" opacity="0.66"></line><line x1="47.5" y1="400" x2="752.5" y2="400" transform="rotate(300, 400, 400)" opacity="0.42"></line><line x1="178.5" y1="400" x2="621.5" y2="400" transform="rotate(304, 400, 400)" opacity="0.21"></line><line x1="564.5" y1="400" x2="235.5" y2="400" transform="rotate(308, 400, 400)" opacity="0.37"></line><line x1="640.5" y1="400" x2="159.5" y2="400" transform="rotate(312, 400, 400)" opacity="0.52"></line><line x1="219" y1="400" x2="581" y2="400" transform="rotate(316, 400, 400)" opacity="0.96"></line><line x1="738.5" y1="400" x2="61.5" y2="400" transform="rotate(320, 400, 400)" opacity="0.25"></line><line x1="417" y1="400" x2="383" y2="400" transform="rotate(324, 400, 400)" opacity="0.99"></line><line x1="572.5" y1="400" x2="227.5" y2="400" transform="rotate(328, 400, 400)" opacity="0.54"></line><line x1="480.5" y1="400" x2="319.5" y2="400" transform="rotate(332, 400, 400)" opacity="0.87"></line><line x1="743.5" y1="400" x2="56.5" y2="400" transform="rotate(336, 400, 400)" opacity="0.58"></line><line x1="342" y1="400" x2="458" y2="400" transform="rotate(340, 400, 400)" opacity="0.28"></line><line x1="70.5" y1="400" x2="729.5" y2="400" transform="rotate(344, 400, 400)" opacity="0.32"></line><line x1="501" y1="400" x2="299" y2="400" transform="rotate(348, 400, 400)" opacity="0.74"></line></g></svg>